<?xml version="1.0" standalone="no"?><!DOCTYPE svg PUBLIC "-//W3C//DTD SVG 1.1//EN" "http://www.w3.org/Graphics/SVG/1.1/DTD/svg11.dtd"><svg t="1556443318325" class="icon" style="" viewBox="0 0 1024 1024" version="1.1" xmlns="http://www.w3.org/2000/svg" p-id="2003" xmlns:xlink="http://www.w3.org/1999/xlink" width="64" height="64"><defs><style type="text/css"></style></defs><path d="M384 0v96c73.482 0 144.712 14.37 211.716 42.71 64.768 27.394 122.958 66.632 172.948 116.624s89.228 108.18 116.624 172.948C913.63 495.286 928 566.52 928 640h96C1024 286.54 737.46 0 384 0z m0 192v96c94.022 0 182.418 36.614 248.9 103.098C699.386 457.582 736 545.976 736 640h96c0-247.422-200.576-448-448-448z m96 192l-64 64-224 64L0 928l25.374 25.374L258.178 720.57A64.13 64.13 0 0 1 256 704c0-35.346 28.654-64 64-64s64 28.654 64 64-28.654 64-64 64a64.016 64.016 0 0 1-16.568-2.178L70.628 998.626 96 1024l416-192 64-224 64-64-160-160z" p-id="2004" fill="#f4ea2a"></path></svg>